# Blender 4.3.2
# www.blender.org
mtllib howie_robot_sketch.mtl
o living_room
v -1.604391 -5.180367 1.561342
v -1.654756 -3.002044 1.561342
v 0.284330 -2.699849 1.561342
v -3.845672 -5.180367 1.561342
v -3.681983 4.162502 1.561342
v 1.430154 3.696618 1.561342
v 0.813172 0.120640 1.561342
v -1.604391 -5.180367 -1.888720
v -1.654756 -3.002044 -1.888720
v 0.284330 -2.699849 -1.888720
v -3.845672 -5.180367 -1.888720
v -3.681983 4.162502 -1.888720
v 1.430154 3.696618 -1.888720
v 0.813172 0.120640 -1.888720
vn -0.0000 -0.0000 1.0000
vn -0.0000 -0.0000 -1.0000
vn -0.0000 -1.0000 -0.0000
vn 0.9997 0.0231 -0.0000
vn 0.9854 -0.1700 -0.0000
vn -0.9998 0.0175 -0.0000
vn 0.1540 -0.9881 -0.0000
vn 0.9829 -0.1843 -0.0000
vn 0.0908 0.9959 -0.0000
vt 0.000000 0.000000
s 0
f 2/1/1 7/1/1 5/1/1
f 9/1/2 12/1/2 14/1/2
f 4/1/3 8/1/3 1/1/3
f 1/1/4 9/1/4 2/1/4
f 7/1/5 13/1/5 6/1/5
f 5/1/6 11/1/6 4/1/6
f 2/1/7 10/1/7 3/1/7
f 3/1/8 14/1/8 7/1/8
f 6/1/9 12/1/9 5/1/9
f 2/1/1 3/1/1 7/1/1
f 7/1/1 6/1/1 5/1/1
f 5/1/1 4/1/1 2/1/1
f 4/1/1 1/1/1 2/1/1
f 14/1/2 10/1/2 9/1/2
f 9/1/2 8/1/2 11/1/2
f 11/1/2 12/1/2 9/1/2
f 12/1/2 13/1/2 14/1/2
f 4/1/3 11/1/3 8/1/3
f 1/1/4 8/1/4 9/1/4
f 7/1/5 14/1/5 13/1/5
f 5/1/6 12/1/6 11/1/6
f 2/1/7 9/1/7 10/1/7
f 3/1/8 10/1/8 14/1/8
f 6/1/9 13/1/9 12/1/9
o home
v 0.347287 -3.467928 1.561342
v 0.347287 -5.092227 1.561342
v -1.604391 -5.180367 1.561342
v -1.654756 -3.002044 1.561342
v 0.284330 -2.699849 1.561342
v 0.347287 -3.467928 -1.888720
v 0.347287 -5.092227 -1.888720
v -1.604391 -5.180367 -1.888720
v -1.654756 -3.002044 -1.888720
v 0.284330 -2.699849 -1.888720
vn -0.0000 -0.0000 1.0000
vn -0.0000 -0.0000 -1.0000
vn 0.9967 0.0817 -0.0000
vn -0.9997 -0.0231 -0.0000
vn 1.0000 -0.0000 -0.0000
vn -0.1540 0.9881 -0.0000
vn 0.0451 -0.9990 -0.0000
vt 0.000000 0.000000
s 0
f 17/2/10 15/2/10 18/2/10
f 23/2/11 20/2/11 22/2/11
f 15/2/12 24/2/12 19/2/12
f 18/2/13 22/2/13 17/2/13
f 16/2/14 20/2/14 15/2/14
f 19/2/15 23/2/15 18/2/15
f 17/2/16 21/2/16 16/2/16
f 16/2/10 15/2/10 17/2/10
f 15/2/10 19/2/10 18/2/10
f 24/2/11 20/2/11 23/2/11
f 20/2/11 21/2/11 22/2/11
f 15/2/12 20/2/12 24/2/12
f 18/2/13 23/2/13 22/2/13
f 16/2/14 21/2/14 20/2/14
f 19/2/15 24/2/15 23/2/15
f 17/2/16 22/2/16 21/2/16
o bedroom
v 0.347287 -3.467928 1.561342
v 0.347287 -5.092227 1.561342
v 2.802624 -3.518294 1.561342
v 0.347287 -5.948447 1.561342
v 0.347287 -6.817259 1.561342
v 2.147867 -6.804667 1.561342
v 2.009361 -5.079636 1.561342
v 2.840398 -5.180367 1.561342
v 2.802624 -3.518294 -1.888720
v 0.347287 -3.467928 -1.888720
v 0.347287 -5.092227 -1.888720
v 0.347287 -5.948447 -1.888720
v 0.347287 -6.817259 -1.888720
v 2.147867 -6.804667 -1.888720
v 2.009361 -5.079636 -1.888720
v 2.840398 -5.180367 -1.888720
vn -0.0000 -0.0000 1.0000
vn -0.0000 -0.0000 -1.0000
vn 0.9968 0.0800 -0.0000
vn -1.0000 -0.0000 -0.0000
vn -0.1203 -0.9927 -0.0000
vn 0.0070 -1.0000 -0.0000
vn 0.0205 0.9998 -0.0000
vn 0.9997 0.0227 -0.0000
vt 0.000000 0.000000
s 0
f 26/3/17 28/3/17 31/3/17
f 39/3/18 36/3/18 35/3/18
f 30/3/19 39/3/19 31/3/19
f 26/3/20 36/3/20 28/3/20
f 25/3/20 35/3/20 26/3/20
f 31/3/21 40/3/21 32/3/21
f 29/3/22 38/3/22 30/3/22
f 28/3/20 37/3/20 29/3/20
f 27/3/23 34/3/23 25/3/23
f 32/3/24 33/3/24 27/3/24
f 32/3/17 27/3/17 31/3/17
f 27/3/17 25/3/17 31/3/17
f 29/3/17 30/3/17 28/3/17
f 30/3/17 31/3/17 28/3/17
f 31/3/17 25/3/17 26/3/17
f 34/3/18 33/3/18 39/3/18
f 33/3/18 40/3/18 39/3/18
f 39/3/18 38/3/18 36/3/18
f 38/3/18 37/3/18 36/3/18
f 35/3/18 34/3/18 39/3/18
f 30/3/19 38/3/19 39/3/19
f 26/3/20 35/3/20 36/3/20
f 25/3/20 34/3/20 35/3/20
f 31/3/21 39/3/21 40/3/21
f 29/3/22 37/3/22 38/3/22
f 28/3/20 36/3/20 37/3/20
f 27/3/23 33/3/23 34/3/23
f 32/3/24 40/3/24 33/3/24
